<svg width="206" height="48" viewBox="0 0 206 48" fill="none" xmlns="http://www.w3.org/2000/svg">
<g id="Logo" clip-path="url(#clip0_515_541)">
<g id="Group">
<g id="Group_2">
<path id="Vector" d="M43.4709 47.3333H5.92686C3.16561 47.3333 0.926758 45.1016 0.926758 42.3528V4.97761C0.926758 2.22878 3.16561 0 5.92686 0H43.4709C46.2322 0 48.471 2.22878 48.471 4.97761V42.3528C48.474 45.1016 46.2322 47.3333 43.4709 47.3333Z" fill="#EFB91C"/>
</g>
<g id="Group_3">
<path id="Vector_2" d="M19.0346 17.7354V18.4487V28.2909V35.2031C19.0346 37.6994 17.0018 39.7231 14.4942 39.7231C11.9867 39.7231 9.95386 37.6994 9.95386 35.2031V25.6461L19.0346 16.6062V17.7354Z" fill="black"/>
</g>
<g id="Group_4">
<path id="Vector_3" d="M14.4942 7.56274C11.9867 7.56274 9.95386 9.58648 9.95386 12.0827V16.6027H19.0346V12.0827C19.0346 9.58648 17.0018 7.56274 14.4942 7.56274Z" fill="black"/>
</g>
<g id="Group_5">
<path id="Vector_4" d="M19.0585 16.5789L28.0468 7.63114L28.1184 7.55981H29.2558C29.7006 7.55981 30.1364 7.58656 30.5633 7.64302C35.226 8.23439 38.9127 11.9401 39.45 16.6027V35.3423C39.45 37.785 37.4619 39.7642 35.0081 39.7642C32.5543 39.7642 30.5662 37.785 30.5662 35.3423V27.913V23.4168C30.5662 19.6547 27.5035 16.6057 23.7243 16.6057H19.0556H19.0347L19.0585 16.5789Z" fill="black"/>
</g>
</g>
<path id="Vector_5" d="M55.2473 8.698H62.2355V39.1283H55.2473V8.698Z" fill="white"/>
<path id="Vector_6" d="M78.3909 16.7837C80.7193 16.7837 82.6626 17.5801 84.2209 19.1759C85.7791 20.7687 86.5582 22.9738 86.5582 25.785V39.1309H80.0089V26.7389C80.0089 25.464 79.6506 24.4864 78.9402 23.8058C78.2267 23.1253 77.3163 22.7836 76.2118 22.7836C74.961 22.7836 73.9699 23.161 73.2416 23.9128C72.5132 24.6676 72.149 25.782 72.149 27.259V39.128H65.5996V17.3899H72.149V19.4345C73.4565 17.6663 75.5371 16.7837 78.3909 16.7837Z" fill="white"/>
<path id="Vector_7" d="M102.887 17.3904H110.135L102.057 39.1254H94.6332L86.5554 17.3904H93.8033L98.3437 31.1702L102.887 17.3904Z" fill="white"/>
<path id="Vector_8" d="M116.926 14.3263C116.153 15.093 115.23 15.4793 114.153 15.4793C113.075 15.4793 112.15 15.096 111.38 14.3263C110.61 13.5596 110.221 12.6384 110.221 11.5656C110.221 10.4928 110.607 9.57455 111.38 8.80488C112.15 8.03818 113.075 7.65186 114.153 7.65186C115.23 7.65186 116.153 8.03521 116.926 8.80488C117.696 9.57158 118.084 10.4928 118.084 11.5656C118.084 12.6384 117.699 13.5596 116.926 14.3263ZM110.878 39.1282V17.3901H117.428V39.1252H110.878V39.1282Z" fill="white"/>
<path id="Vector_9" d="M126.556 23.7381C126.556 24.172 126.926 24.5286 127.67 24.802C128.413 25.0784 129.308 25.3518 130.356 25.6281C131.404 25.9045 132.452 26.2581 133.5 26.692C134.547 27.1259 135.443 27.845 136.186 28.8435C136.929 29.842 137.3 31.0961 137.3 32.6027C137.3 34.9504 136.425 36.7245 134.679 37.928C132.932 39.1316 130.777 39.7319 128.216 39.7319C123.616 39.7319 120.487 38.0083 118.828 34.5581L124.505 31.3398C125.087 33.0515 126.323 33.9043 128.216 33.9043C129.789 33.9043 130.574 33.4556 130.574 32.5552C130.574 32.1213 130.204 31.7588 129.461 31.4675C128.717 31.1793 127.822 30.897 126.774 30.6206C125.726 30.3442 124.679 29.9847 123.631 29.533C122.583 29.0842 121.687 28.3799 120.944 27.4231C120.201 26.4662 119.831 25.2923 119.831 23.9016C119.831 21.6401 120.652 19.8868 122.299 18.6417C123.944 17.3965 125.974 16.7725 128.392 16.7725C130.198 16.7725 131.843 17.1707 133.326 17.9671C134.81 18.7635 136.004 19.9165 136.909 21.4232L131.317 24.4335C130.619 23.1587 129.643 22.5197 128.392 22.5197C127.168 22.5227 126.556 22.9269 126.556 23.7381Z" fill="white"/>
<path id="Vector_10" d="M157.387 36.4096C155.145 38.6265 152.407 39.735 149.178 39.735C145.948 39.735 143.21 38.6265 140.968 36.4096C138.727 34.1927 137.607 31.4766 137.607 28.2582C137.607 25.0399 138.727 22.3237 140.968 20.1068C143.21 17.8899 145.948 16.7815 149.178 16.7815C152.407 16.7815 155.145 17.8899 157.387 20.1068C159.629 22.3237 160.748 25.0399 160.748 28.2582C160.748 31.4766 159.629 34.1927 157.387 36.4096ZM145.595 31.955C146.557 32.9119 147.751 33.3904 149.178 33.3904C150.604 33.3904 151.799 32.9119 152.76 31.955C153.721 30.9981 154.202 29.7678 154.202 28.2612C154.202 26.7545 153.721 25.5213 152.76 24.5674C151.799 23.6105 150.604 23.132 149.178 23.132C147.751 23.132 146.557 23.6105 145.595 24.5674C144.634 25.5243 144.154 26.7545 144.154 28.2612C144.154 29.7678 144.634 30.9981 145.595 31.955Z" fill="white"/>
<path id="Vector_11" d="M169.351 21.2593C169.76 19.8686 170.581 18.8017 171.82 18.0647C173.056 17.3248 174.417 16.9563 175.903 16.9563V24.3469C174.3 24.0854 172.811 24.3558 171.429 25.1523C170.047 25.9487 169.354 27.3335 169.354 29.3037V39.1282H162.805V17.3902H169.354V21.2593H169.351Z" fill="white"/>
<path id="Vector_12" d="M188.784 24.8642C185.226 28.7957 183.199 31.5683 182.716 33.179H195.952L189.471 39.1254H175.65C175.65 38.9976 175.644 38.7985 175.626 38.5311C175.611 38.2695 175.605 38.0704 175.605 37.9426C175.605 35.075 176.193 32.3261 177.375 29.7021C178.56 27.0751 180.354 24.5224 182.766 22.0411C183.202 21.6042 183.853 20.9742 184.71 20.154C186.328 18.6236 187.405 17.4706 187.937 16.695C188.42 15.9699 188.784 15.1853 189.017 14.3384C189.253 13.4915 189.369 12.5286 189.369 11.4499C189.369 9.87489 189.086 8.70403 188.519 7.94625C187.952 7.18846 187.08 6.81403 185.898 6.81403C184.653 6.81403 183.739 7.28059 183.163 8.2137C182.59 9.14979 182.301 10.6386 182.301 12.6861C182.301 13.0754 182.31 13.3696 182.325 13.5806C182.342 13.7916 182.351 13.9758 182.351 14.1363H175.841C175.841 13.9758 175.835 13.7589 175.82 13.4825C175.805 13.2121 175.796 13.019 175.796 12.9031C175.796 9.00418 176.623 6.15431 178.274 4.36237C179.924 2.56449 182.53 1.66406 186.092 1.66406C189.423 1.66406 191.975 2.47534 193.743 4.10383C194.647 4.93888 195.322 5.96709 195.761 7.18549C196.179 8.34149 196.388 9.66687 196.388 11.1616C196.388 11.7589 196.361 12.3384 196.301 12.9001C196.226 13.6816 196.098 14.4216 195.913 15.1229C195.596 16.3294 195.107 17.4854 194.444 18.582C193.925 19.4497 192.77 20.7959 190.969 22.6176C190.029 23.5566 189.31 24.2936 188.808 24.8404L188.784 24.8642Z" fill="white"/>
<path id="Vector_13" d="M200.653 1.66064C200.343 3.82107 199.334 5.47632 197.617 6.62637C197.316 6.82844 196.993 7.01566 196.653 7.18207C197.071 8.33807 197.28 9.66345 197.28 11.1582C197.28 11.7555 197.253 12.335 197.193 12.8967H198.71V39.1249L205.268 33.1786V1.66064H200.653Z" fill="white"/>
</g>
<defs>
<clipPath id="clip0_515_541">
<rect width="204.341" height="47.3333" fill="white" transform="translate(0.926758)"/>
</clipPath>
</defs>
</svg>
