<svg width="28" height="28" viewBox="0 0 28 28" fill="none" xmlns="http://www.w3.org/2000/svg">
<g id="Mask group">
<mask id="mask0_1_3290" style="mask-type:alpha" maskUnits="userSpaceOnUse" x="0" y="0" width="28" height="28">
<circle id="Ellipse 20" cx="14" cy="14" r="14" fill="#D9D9D9"/>
</mask>
<g mask="url(#mask0_1_3290)">
<g id="&#240;&#159;&#166;&#134; icon &#34;European Union&#34;">
<g id="Mask group_2">
<mask id="mask1_1_3290" style="mask-type:luminance" maskUnits="userSpaceOnUse" x="-5" y="0" width="39" height="29">
<g id="Group">
<path id="Vector" fill-rule="evenodd" clip-rule="evenodd" d="M-5 0.00012207H33.1158V28.5869H-5V0.00012207Z" fill="white"/>
</g>
</mask>
<g mask="url(#mask1_1_3290)">
<g id="Group_2">
<path id="Vector_2" fill-rule="evenodd" clip-rule="evenodd" d="M-5 0.00012207V28.5869H33.1158V0.00012207H-5Z" fill="#F7FCFF"/>
<g id="Mask group_3">
<mask id="mask2_1_3290" style="mask-type:luminance" maskUnits="userSpaceOnUse" x="-5" y="0" width="39" height="29">
<g id="Group_3">
<path id="Vector_3" fill-rule="evenodd" clip-rule="evenodd" d="M-5 0.00012207V28.5869H33.1158V0.00012207H-5Z" fill="white"/>
</g>
</mask>
<g mask="url(#mask2_1_3290)">
<g id="Group_4">
<path id="Vector_4" fill-rule="evenodd" clip-rule="evenodd" d="M-5 0.00012207V28.5869H33.1158V0.00012207H-5Z" fill="#3D58DB"/>
<path id="Vector_5" fill-rule="evenodd" clip-rule="evenodd" d="M12.9251 4.21186L12.6577 5.77105L14.0579 5.0349L15.4581 5.77105L15.1907 4.21186L16.3235 2.99388H14.758L14.0579 1.46155L13.3578 2.99388H11.7922L12.9251 4.21186ZM12.9251 24.9002L12.6577 26.4595L14.0579 25.7232L15.4581 26.4595L15.1907 24.9002L16.3235 23.6823H14.758L14.0579 22.1499L13.3578 23.6823H11.7922L12.9251 24.9002ZM1.757 16.22L2.02443 14.6609L0.891602 13.4429H2.45712L3.15724 11.9106L3.85736 13.4429H5.42289L4.29006 14.6609L4.55748 16.22L3.15724 15.4839L1.757 16.22ZM4.21364 19.5934L3.94622 21.1526L5.34646 20.4165L6.74671 21.1526L6.47928 19.5934L7.61214 18.3754H6.04658L5.34646 16.8431L4.64634 18.3754H3.08082L4.21364 19.5934ZM22.7828 20.4165L21.3825 21.1526L21.6499 19.5934L20.5171 18.3754H22.0827L22.7828 16.8431L23.4828 18.3754H25.0484L23.9156 19.5934L24.183 21.1526L22.7828 20.4165ZM4.21364 9.6L3.94622 11.1592L5.34646 10.423L6.74671 11.1592L6.47928 9.6L7.61214 8.38202H6.04658L5.34646 6.84969L4.64634 8.38202H3.08082L4.21364 9.6ZM22.7828 10.423L21.3825 11.1592L21.6499 9.6L20.5171 8.38202H22.0827L22.7828 6.84969L23.4828 8.38202H25.0484L23.9156 9.6L24.183 11.1592L22.7828 10.423ZM7.69278 23.562L7.42537 25.1211L8.82553 24.385L10.2258 25.1211L9.9584 23.562L11.0913 22.344H9.52567L8.82553 20.8117L8.12551 22.344H6.55994L7.69278 23.562ZM18.017 25.1211L18.2844 23.562L17.1516 22.344H18.7172L19.4173 20.8117L20.1173 22.344H21.6829L20.5501 23.562L20.8175 25.1211L19.4173 24.385L18.017 25.1211ZM7.42537 7.12722L8.82553 6.39107L10.2258 7.12722L9.9584 5.56802L11.0913 4.35005H9.52567L8.82553 2.81772L8.12551 4.35005H6.55994L7.69278 5.56802L7.42537 7.12722ZM18.017 7.12722L18.2844 5.56802L17.1516 4.35005H18.7172L19.4173 2.81772L20.1173 4.35005H21.6829L20.5501 5.56802L20.8175 7.12722L19.4173 6.39107L18.017 7.12722ZM23.7346 14.5201L23.4672 16.0792L24.8675 15.3431L26.2678 16.0792L26.0004 14.5201L27.1331 13.302H25.5676L24.8675 11.7697L24.1674 13.302H22.6019L23.7346 14.5201Z" fill="#FFD018"/>
</g>
</g>
</g>
</g>
</g>
</g>
</g>
</g>
</g>
</svg>
