<svg width="24" height="24" viewBox="0 0 24 24" fill="none" xmlns="http://www.w3.org/2000/svg">
<g id="Iconsax/Linear/usersearch">
<path id="Vector" d="M3.40991 22C3.40991 18.13 7.25991 15 11.9999 15M21.9999 22L20.9999 21M11.9999 12C13.326 12 14.5978 11.4732 15.5354 10.5355C16.4731 9.59785 16.9999 8.32608 16.9999 7C16.9999 5.67392 16.4731 4.40215 15.5354 3.46447C14.5978 2.52678 13.326 2 11.9999 2C10.6738 2 9.40206 2.52678 8.46438 3.46447C7.5267 4.40215 6.99991 5.67392 6.99991 7C6.99991 8.32608 7.5267 9.59785 8.46438 10.5355C9.40206 11.4732 10.6738 12 11.9999 12ZM18.1999 21.4C19.0486 21.4 19.8625 21.0629 20.4627 20.4627C21.0628 19.8626 21.3999 19.0487 21.3999 18.2C21.3999 17.3513 21.0628 16.5374 20.4627 15.9373C19.8625 15.3371 19.0486 15 18.1999 15C17.3512 15 16.5373 15.3371 15.9372 15.9373C15.3371 16.5374 14.9999 17.3513 14.9999 18.2C14.9999 19.0487 15.3371 19.8626 15.9372 20.4627C16.5373 21.0629 17.3512 21.4 18.1999 21.4Z" stroke="white" stroke-width="1.5" stroke-linecap="round" stroke-linejoin="round"/>
</g>
</svg>
